<?xml version="1.0" encoding="UTF-8" standalone="no"?>
<!-- Created with Inkscape (http://www.inkscape.org/) -->

<svg
   xmlns:dc="http://purl.org/dc/elements/1.1/"
   xmlns:cc="http://creativecommons.org/ns#"
   xmlns:rdf="http://www.w3.org/1999/02/22-rdf-syntax-ns#"
   xmlns:svg="http://www.w3.org/2000/svg"
   xmlns="http://www.w3.org/2000/svg"
   xmlns:sodipodi="http://sodipodi.sourceforge.net/DTD/sodipodi-0.dtd"
   xmlns:inkscape="http://www.inkscape.org/namespaces/inkscape"
   width="297mm"
   height="210mm"
   id="svg9833"
   version="1.1"
   inkscape:version="0.48.3.1 r9886"
   sodipodi:docname="New document 5">
  <defs
     id="defs9835">
    <filter
       y="-0.11058675"
       x="-0.059278153"
       height="1.2211735"
       inkscape:collect="always"
       id="filter9098-0"
       width="1.1185563"
       color-interpolation-filters="sRGB">
      <feGaussianBlur
         stdDeviation="15.039911"
         id="feGaussianBlur9100-1"
         inkscape:collect="always" />
    </filter>
    <filter
       id="filter9094-8"
       inkscape:collect="always"
       color-interpolation-filters="sRGB">
      <feGaussianBlur
         stdDeviation="15.039911"
         id="feGaussianBlur9096-4"
         inkscape:collect="always" />
    </filter>
    <filter
       id="filter9090-3"
       inkscape:collect="always"
       color-interpolation-filters="sRGB">
      <feGaussianBlur
         stdDeviation="15.039911"
         id="feGaussianBlur9092-1"
         inkscape:collect="always" />
    </filter>
    <filter
       id="filter9086-1"
       inkscape:collect="always"
       color-interpolation-filters="sRGB">
      <feGaussianBlur
         stdDeviation="15.039911"
         id="feGaussianBlur9088-4"
         inkscape:collect="always" />
    </filter>
    <filter
       y="-0.11058675"
       x="-0.059278153"
       height="1.2211735"
       inkscape:collect="always"
       id="filter9098-6"
       width="1.1185563"
       color-interpolation-filters="sRGB">
      <feGaussianBlur
         stdDeviation="15.039911"
         id="feGaussianBlur9100-6"
         inkscape:collect="always" />
    </filter>
    <filter
       id="filter9094-7"
       inkscape:collect="always"
       color-interpolation-filters="sRGB">
      <feGaussianBlur
         stdDeviation="15.039911"
         id="feGaussianBlur9096-3"
         inkscape:collect="always" />
    </filter>
    <filter
       id="filter9090-2"
       inkscape:collect="always"
       color-interpolation-filters="sRGB">
      <feGaussianBlur
         stdDeviation="15.039911"
         id="feGaussianBlur9092-2"
         inkscape:collect="always" />
    </filter>
    <filter
       id="filter9086-4"
       inkscape:collect="always"
       color-interpolation-filters="sRGB">
      <feGaussianBlur
         stdDeviation="15.039911"
         id="feGaussianBlur9088-8"
         inkscape:collect="always" />
    </filter>
    <filter
       y="-0.11058675"
       x="-0.059278153"
       height="1.2211735"
       inkscape:collect="always"
       id="filter9098"
       width="1.1185563"
       color-interpolation-filters="sRGB">
      <feGaussianBlur
         stdDeviation="15.039911"
         id="feGaussianBlur9100"
         inkscape:collect="always" />
    </filter>
    <filter
       id="filter9094"
       inkscape:collect="always"
       color-interpolation-filters="sRGB">
      <feGaussianBlur
         stdDeviation="15.039911"
         id="feGaussianBlur9096"
         inkscape:collect="always" />
    </filter>
    <filter
       id="filter9090"
       inkscape:collect="always"
       color-interpolation-filters="sRGB">
      <feGaussianBlur
         stdDeviation="15.039911"
         id="feGaussianBlur9092"
         inkscape:collect="always" />
    </filter>
    <filter
       id="filter9086"
       inkscape:collect="always"
       color-interpolation-filters="sRGB">
      <feGaussianBlur
         stdDeviation="15.039911"
         id="feGaussianBlur9088"
         inkscape:collect="always" />
    </filter>
    <filter
       inkscape:collect="always"
       x="-0.10484781"
       width="1.2096956"
       y="-0.16617554"
       height="1.3323511"
       id="filter10273"
       color-interpolation-filters="sRGB">
      <feGaussianBlur
         inkscape:collect="always"
         stdDeviation="28.144907"
         id="feGaussianBlur10275" />
    </filter>
    <filter
       inkscape:collect="always"
       x="-0.18019789"
       width="1.3603958"
       y="-0.2855995"
       height="1.5711991"
       id="filter10307"
       color-interpolation-filters="sRGB">
      <feGaussianBlur
         inkscape:collect="always"
         stdDeviation="48.371565"
         id="feGaussianBlur10309" />
    </filter>
  </defs>
  <sodipodi:namedview
     inkscape:document-units="mm"
     pagecolor="#ffffff"
     bordercolor="#666666"
     borderopacity="1.0"
     inkscape:pageopacity="0"
     inkscape:pageshadow="2"
     inkscape:zoom="0.43415836"
     inkscape:cx="1.698911"
     inkscape:cy="380"
     inkscape:current-layer="layer1"
     id="namedview9837"
     showgrid="false"
     units="mm"
     inkscape:window-width="1920"
     inkscape:window-height="1061"
     inkscape:window-x="-1"
     inkscape:window-y="-15"
     inkscape:window-maximized="1" />
  <metadata
     id="metadata9839">
    <rdf:RDF>
      <cc:Work
         rdf:about="">
        <dc:format>image/svg+xml</dc:format>
        <dc:type
           rdf:resource="http://purl.org/dc/dcmitype/StillImage" />
        <dc:title></dc:title>
      </cc:Work>
    </rdf:RDF>
  </metadata>
  <g
     inkscape:label="Layer 1"
     inkscape:groupmode="layer"
     id="layer1">
    <rect
       style="opacity:1;fill:#001cc5;fill-opacity:1;fill-rule:nonzero;stroke:#000000;stroke-width:2;stroke-linecap:butt;stroke-miterlimit:4;stroke-opacity:1;stroke-dasharray:none;stroke-dashoffset:0"
       id="rect10009"
       width="1147.0469"
       height="833.79712"
       x="-39.156219"
       y="-43.63652" />
    <g
       transform="matrix(0.30420628,0,0,0.26032107,15.419044,82.263739)"
       id="g3138"
       style="opacity:0.40460528">
      <path
         inkscape:connector-curvature="0"
         d="m 636.45637,363.58679 c 7.31431,49.80476 -13.38011,100.49198 -57.64176,87.7563 37.63087,-41.03503 184.74187,-19.56439 66.08053,6.47822 -12.56195,33.70548 -89.30523,88.86537 -84.24577,78.30047 C 544.99553,503.90577 359.01743,313.2081 377.73805,389.93259 c 92.83824,54.36274 29.11396,117.29665 2.78327,51.35784 -22.13282,-50.37278 27.61659,88.37538 -23.82662,38.12958 -113.27846,-18.54298 34.66656,-28.03858 -111.21099,-32.92841 -91.36329,24.98542 51.74879,18.26583 64.18218,-91.48909 -30.2227,-85.53436 -56.95297,15.00711 -56.76613,8.79167 62.31103,-207.01931 26.6998,283.85977 94.96619,58.68316 32.97019,38.75147 -150.478,-315.29949 -29.29151,-206.78983 28.08221,-2.07907 194.87993,79.34582 142.60081,139.11551 116.91366,-67.05359 201.66224,-106.17601 146.16875,-49.43942 53.35087,5.49803 120.27771,25.5715 128.67181,67.88826 7.26285,39.97659 -177.07653,-95.62492 -99.60526,-30.64977 120.52409,-69.19735 88.48469,-14.90799 87.29683,-19.08059"
         sodipodi:nodetypes="csssccsssssssssc"
         id="path3169"
         style="opacity:0.21363633;fill:#ffffff;fill-opacity:1;stroke:none;filter:url(#filter9098)" />
      <path
         inkscape:connector-curvature="0"
         d="m 689.19725,299.34193 c 23.32951,63.30983 5.4337,45.50569 -39.88153,119.98236 C 556.141,386.6412 879.03359,325.71454 687.03839,382.06654 648.27447,424.589 741.48993,536.97561 704.49285,524.03502 623.88614,463.01685 511.3509,332.35188 474.86811,338.48204 c 49.29341,33.21309 2.84458,246.74524 -41.64137,111.16275 -18.87939,-32.71968 -17.93572,-49.52719 -71.98239,-95.01716 -120.27782,58.98033 -26.83154,60.11616 -99.48691,59.42435 -65.38828,15.35098 32.50497,-50.77849 54.72776,-129.75454 -55.84915,-74.80172 -14.57944,7.53709 -38.36219,38.14154 -4.45564,-242.42801 99.47536,153.44771 173.76975,37.24827 -10.36701,79.26455 -114.39077,-223.2871 -37.48072,-189.17489 40.92516,18.74041 203.23381,138.89255 167.23021,159.50632 100.99886,-60.31809 226.36311,-157.72753 136.82852,-93.28695 69.40215,-66.92073 58.73993,64.55977 67.64508,88.15658 4.15038,80.68462 -119.1411,-83.40627 -70.04043,-5.83406 115.86653,-56.5365 95.05153,-21.17171 65.1035,-14.03658"
         sodipodi:nodetypes="csssccsssssssssc"
         id="path7701"
         style="opacity:0.21363633;fill:#ffffff;fill-opacity:1;stroke:none;filter:url(#filter9094)" />
      <path
         inkscape:connector-curvature="0"
         d="m 614.30083,383.18405 c 7.91628,66.53331 -33.40689,-36.65767 -37.57368,86.09479 -154.59756,10.18794 274.89305,-225.12675 36.38568,-96.40781 31.92635,46.74207 64.55338,183.83579 24.16673,173.9073 C 532.43782,426.88432 379.97203,362.37776 439.40068,339.39131 c 85.46671,69.79342 -61.47109,239.25094 -106.82541,73.74439 -14.6142,-24.49712 36.93592,-19.69012 31.11453,-4.30044 -99.80467,25.97942 -79.15071,-49.19821 -153.45213,7.94871 -45.5416,5.94521 19.07351,-43.25672 57.08152,-104.12967 17.20689,-114.27264 5.44222,-10.14376 4.05048,-51.56932 -84.31834,-162.3951 37.57809,184.66379 122.35417,87.87251 -172.88435,65.82543 -158.78794,-216.69262 -58.51926,-127.63463 54.21596,13.47718 194.11967,67.80517 169.08273,81.29364 203.27393,-54.15139 342.26162,-175.17012 193.84267,-98.69842 60.80594,-65.30478 22.28073,115.60558 32.60373,136.91207 20.18707,84.34465 -93.83839,-51.64931 -51.73421,42.37025 142.39916,-36.57394 -75.66125,-146.34066 20.05005,-38.14524"
         sodipodi:nodetypes="csssccsssssssssc"
         id="path7733"
         style="opacity:0.21363633;fill:#ffffff;fill-opacity:1;stroke:none;filter:url(#filter9090)" />
      <path
         inkscape:connector-curvature="0"
         d="M 688.02039,360.78913 C 709.83089,434.11786 652.30233,338.65399 575.9426,463.22777 554.44406,520.66555 844.83078,290.75813 691.47505,395.42657 573.33283,501.86809 726.82412,596.0789 661.60816,544.29607 601.9525,463.5507 426.05167,311.45587 477.11904,319.26046 c 115.76198,41.8856 -15.994,242.03615 -68.76222,92.92566 -68.14672,-117.06165 -22.27029,-34.72523 -77.45205,-8.13328 -98.02706,-11.53885 -69.70359,-67.11696 -126.37604,-41.02606 -56.26045,31.0978 80.80181,-17.01576 89.06184,-87.46653 19.17612,-76.21672 56.02416,29.57307 17.57731,-53.67154 C 265.35427,138.0693 535.422,312.29824 445.72407,300.30946 363.03786,266.24571 268.09085,118.92796 408.60803,213.37708 494.15697,294.24117 271.399,456.71873 504.6489,365.08745 578.17629,333.114 775.58725,121.82971 686.7658,161.04528 c -84.59869,-49.47557 108.03953,91.68977 74.4798,111.3573 73.86488,50.57166 -113.01928,174.2563 -65.50737,121.45821 87.60893,26.86301 -52.08265,-165.30892 42.24822,-69.62617"
         sodipodi:nodetypes="czzzzzzzzzzzzzzzz"
         id="path7799"
         style="opacity:0.21363633;fill:#ffffff;fill-opacity:1;stroke:none;filter:url(#filter9086)" />
      <path
         inkscape:connector-curvature="0"
         d="m 683.86925,394.05815 c 3.22902,-31.43738 49.23887,209.46921 -49.98141,193.26964 -40.55581,41.22222 203.56409,-273.7137 -7.17953,-183.01582 -9.2399,2.50628 -139.99798,116.78547 -59.02054,163.668 -19.36094,-61.0386 -80.41419,-110.54204 -170.87072,-79.27439 33.3119,56.17211 59.89234,125.13898 41.45007,69.93818 -48.30988,-49.26566 56.41212,-38.15918 7.11103,-83.25458 -70.39696,4.62696 -102.67885,10.49634 -235.62331,-2.55347 -75.79784,55.50419 112.13984,-53.31584 98.45773,-141.40188 -40.44991,44.81405 16.71584,48.41246 8.6439,34.76508 -40.36859,-185.28774 -100.05657,178.02113 62.52164,93.76695 30.62924,8.79695 13.11347,-243.23362 76.75717,-161.96083 58.88654,-1.57619 -15.31682,123.04181 41.62754,158.56902 42.49682,-76.31053 220.79221,-199.82121 163.2115,-95.48509 66.39228,-36.8176 87.34078,-10.05942 78.70891,59.36846 -8.63765,140.08169 -125.47649,-183.54116 -58.71969,-32.68901 157.41776,-20.80266 -9.77806,21.48392 36.73404,-12.82498"
         sodipodi:nodetypes="csssccsssssssssc"
         id="path9106"
         style="opacity:0.21363633;fill:#ffffff;fill-opacity:1;stroke:none;filter:url(#filter9098)" />
      <path
         inkscape:connector-curvature="0"
         d="m 698.46529,353.58168 c 90.88821,3.5911 84.01684,-39.61447 37.23895,34.24762 -119.19356,-24.93169 156.35319,-70.11612 -41.37421,-13.79637 -42.54307,38.88115 94.86441,223.14968 47.31925,229.26207 65.89753,-18.92751 -176.117,-235.19628 -209.00769,-234.21702 38.82201,20.71719 -52.38676,300.95794 -120.7407,179.66974 -61.00824,-19.19715 44.43678,-153.3583 -15.58301,-153.56072 -173.79063,125.92042 2.53628,63.70579 -72.78983,47.44232 -72.54524,-0.68898 64.31642,0.66354 79.6636,-75.58347 C 340.44811,275.23187 380.29876,253.74689 338.74978,289.68004 390.2899,75.93371 435.5836,502.99939 472.97876,394.66686 462.61482,474.03641 357.51348,150.43851 398.24225,162.63634 c 40.22907,19.08699 254.54171,168.96958 217.67108,188.99247 99.68991,-62.00213 202.62401,-138.40526 73.58409,-134.5959 61.24184,-72.34918 115.85342,92.09318 131.96259,156.40658 4.59265,62.31477 -225.64843,-99.0904 -87.26596,-18.01935 167.98582,-4.617 117.25001,-46.4797 86.95553,-30.97361"
         sodipodi:nodetypes="csssccsssssssssc"
         id="path9108"
         style="opacity:0.21363633;fill:#ffffff;fill-opacity:1;stroke:none;filter:url(#filter9094)" />
      <path
         inkscape:connector-curvature="0"
         d="m 683.61095,459.03389 c 7.68178,66.0997 -126.3629,-33.35253 -101.29555,154.97981 -284.58689,20.47928 363.62597,-279.87311 96.54239,-167.40891 55.15698,85.77097 -6.08913,230.22368 -12.68963,181.45309 C 561.75633,511.19101 373.2169,474.09943 410.16926,439.41171 c 80.51033,71.05252 -47.40783,108.80346 -45.43166,-9.1025 -36.20327,-67.64912 72.88864,-44.62313 43.18639,0.39604 -88.24629,60.73766 -96.80375,-87.81772 -174.2378,14.39095 -43.4215,-14.13326 42.78132,-42.711 74.25793,-84.62204 13.92647,-121.62831 30.16854,-44.95216 -7.12698,-88.1002 -147.50544,-49.89265 53.84638,146.33015 156.29624,20.43724 -147.82434,50.17972 -179.66854,-114.60363 -120.86749,-19.6167 62.77708,25.2335 183.98699,93.75584 172.43384,104.37106 227.49724,-44.85679 462.40699,-276.2257 242.85749,-239.11783 86.04977,-67.63722 -2.50228,253.21489 9.16921,235.44623 60.32589,166.14409 -83.11752,-18.46156 -45.92361,82.71665 123.5894,0.16029 -119.93775,-170.66598 0.0723,-39.92386"
         sodipodi:nodetypes="csssccsssssssssc"
         id="path9110"
         style="opacity:0.21363633;fill:#ffffff;fill-opacity:1;stroke:none;filter:url(#filter9090)" />
      <path
         inkscape:connector-curvature="0"
         d="m 639.89002,530.36304 c -44.70522,-3.87059 112.75646,19.55839 6.55888,56.98085 -125.67738,10.5901 140.54863,-241.03484 6.55401,-138.52485 -50.81716,108.72021 112.9893,227.13605 57.26551,156.77348 C 567.18829,463.39153 453.78356,445.43564 522.76528,462.98624 573.1238,488.47711 436.28247,592.399 397.06363,567.40204 309.79858,494.13802 444.28707,448.12353 400.21906,516.05425 311.87397,470.90729 299.75241,462.149 283.20918,464.32881 c -6.17983,7.22932 20.30875,62.83497 23.30881,-68.59895 6.92393,-45.07668 93.96425,-18.45676 10.78799,-129.28154 59.95433,-53.91954 209.06609,269.34217 95.47728,188.81671 -106.57628,3.1896 -14.58594,-253.86114 26.07939,-149.16441 173.55717,73.69246 -44.96983,164.7295 144.9254,81.93349 16.21265,50.81031 184.32858,-202.69 149.45938,-122.62843 -5.25271,-98.23306 12.29929,119.30406 42.73193,145.48038 -20.01845,67.43974 -221.78656,-11.06301 -53.38413,24.56086 96.38074,-28.34779 -80.16008,-125.28278 22.28624,-3.99837"
         sodipodi:nodetypes="czzzzzzzzzzzzzzzz"
         id="path9112"
         style="opacity:0.21363633;fill:#ffffff;fill-opacity:1;stroke:none;filter:url(#filter9086)" />
      <path
         inkscape:connector-curvature="0"
         d="m 661.96002,712.5338 c 2.20848,-33.56893 88.62114,15.96476 -4.93477,59.98928 -156.15485,10.81949 55.29876,-271.33318 -31.86211,-163.78411 -46.435,182.34244 86.50819,187.92741 32.89292,140.31926 C 486.70916,626.463 375.97966,660.50405 571.81796,614.93494 622.18078,640.58997 403.65636,744.82042 359.34763,717.16846 265.62197,619.48227 536.48367,608.79467 434.82284,703.60981 411.8948,769.74405 342.72953,602.29614 326.39162,603.42065 c 16.15254,14.1149 -70.03533,55.08013 -86.26643,-74.08148 21.44247,-53.16528 65.65748,21.22957 -0.21696,-78.4722 61.45851,18.50345 291.49323,257.50776 177.82863,191.96528 C 296.85042,622.32554 394.21334,381.17919 410.97637,446.9828 592.46296,517.59251 426.937,659.24178 617.67822,574.91694 637.6148,680.18971 754.29616,446.7833 717.45796,482.2782 c -2.59141,-98.24357 28.11232,69.14423 59.32187,98.39492 -15.35397,64.15175 -265.05189,12.19519 -79.38776,23.30851 95.284,-28.26918 -25.43352,-146.67605 52.92699,9.23359"
         transform="matrix(0.894633,0,0,0.6081561,47.501763,43.39895)"
         sodipodi:nodetypes="czzzzzzzzzzzzzzzz"
         id="path9230"
         style="opacity:0.29090905;fill:#4d4d4d;fill-opacity:1;stroke:none;filter:url(#filter10273)" />
      <path
         inkscape:connector-curvature="0"
         style="opacity:0.29090905;fill:#4d4d4d;fill-opacity:1;stroke:none;filter:url(#filter10307)"
         id="path10277"
         sodipodi:nodetypes="czzzzzzzzzzzzzzzz"
         transform="matrix(0.4392971,0,0,0.34573,350.68987,238.53493)"
         d="m 661.96002,712.5338 c 2.20848,-33.56893 88.62114,15.96476 -4.93477,59.98928 -156.15485,10.81949 55.29876,-271.33318 -31.86211,-163.78411 -46.435,182.34244 86.50819,187.92741 32.89292,140.31926 C 486.70916,626.463 375.97966,660.50405 571.81796,614.93494 622.18078,640.58997 403.65636,744.82042 359.34763,717.16846 265.62197,619.48227 536.48367,608.79467 434.82284,703.60981 411.8948,769.74405 342.72953,602.29614 326.39162,603.42065 c 16.15254,14.1149 -70.03533,55.08013 -86.26643,-74.08148 21.44247,-53.16528 65.65748,21.22957 -0.21696,-78.4722 61.45851,18.50345 291.49323,257.50776 177.82863,191.96528 C 296.85042,622.32554 394.21334,381.17919 410.97637,446.9828 592.46296,517.59251 426.937,659.24178 617.67822,574.91694 637.6148,680.18971 754.29616,446.7833 717.45796,482.2782 c -2.59141,-98.24357 28.11232,69.14423 59.32187,98.39492 -15.35397,64.15175 -265.05189,12.19519 -79.38776,23.30851 95.284,-28.26918 -25.43352,-146.67605 52.92699,9.23359" />
    </g>
    <g
       transform="translate(57.637974,105.94242)"
       id="g8804"
       style="opacity:0.40460528">
      <path
         transform="matrix(0.37004058,0,0,-0.26032107,33.555533,367.45689)"
         inkscape:connector-curvature="0"
         d="m 1227.3195,789.50406 c 7.3144,49.80476 -13.3801,100.49198 -57.6417,87.7563 37.6309,-41.03503 184.7419,-19.56439 66.0805,6.47822 -12.5619,33.70548 -89.3052,88.86537 -84.2458,78.30047 -15.6538,-32.21601 -201.6319,-222.91368 -182.91128,-146.18919 92.83828,54.36275 29.11396,117.29665 2.78327,51.35784 -22.13282,-50.37277 27.61659,88.37538 -23.82662,38.12958 -113.27846,-18.54298 34.66656,-28.03858 -111.21099,-32.92841 -91.36329,24.98542 51.74879,18.26583 64.18218,-91.48909 -30.2227,-85.53436 -56.95297,15.00711 -56.76613,8.79167 62.31103,-207.0193 26.6998,283.85975 94.96619,58.68316 32.97019,38.75147 -150.478,-315.29949 -29.29151,-206.78983 28.08221,-2.07907 194.87989,79.34582 142.60079,139.11551 116.9137,-67.05359 201.6623,-106.17601 146.1688,-49.43942 53.3508,5.49803 120.2777,25.5715 128.6718,67.88826 7.2628,39.97659 -177.0765,-95.62492 -99.6053,-30.64977 120.5241,-69.19735 88.4847,-14.90799 87.2969,-19.08059"
         sodipodi:nodetypes="csssccsssssssssc"
         id="path3169-8"
         style="opacity:0.21363633;fill:#ffffff;fill-opacity:1;stroke:none;filter:url(#filter9098-6)" />
      <path
         transform="matrix(0.37004058,0,0,-0.26032107,33.555533,367.45689)"
         inkscape:connector-curvature="0"
         d="m 1280.0604,725.2592 c 23.3295,63.30983 5.4337,45.50569 -39.8815,119.98236 -93.1747,-32.68309 229.7179,-93.60975 37.7227,-37.25774 -38.764,42.52246 54.4515,154.90907 17.4544,141.96848 -80.6067,-61.01817 -193.1419,-191.68314 -229.6247,-185.55298 49.2934,33.21309 2.8446,246.74528 -41.6414,111.16275 -18.8794,-32.71968 -17.9357,-49.52719 -71.98238,-95.01716 -120.27782,58.98033 -26.83154,60.11616 -99.48691,59.42435 -65.38828,15.35098 32.50497,-50.77849 54.72776,-129.75454 -55.84915,-74.80172 -14.57944,7.53709 -38.36219,38.14154 -4.45564,-242.42802 99.47536,153.44771 173.76972,37.24827 -10.367,79.26454 -114.39074,-223.28711 -37.4807,-189.17489 40.9252,18.74041 203.2338,138.89254 167.2302,159.50631 100.9989,-60.31809 226.3631,-157.72752 136.8285,-93.28695 69.4022,-66.92072 58.74,64.55977 67.6451,88.15658 4.1504,80.68462 -119.1411,-83.40627 -70.0404,-5.83406 115.8665,-56.5365 95.0515,-21.17171 65.1035,-14.03658"
         sodipodi:nodetypes="csssccsssssssssc"
         id="path7701-8"
         style="opacity:0.21363633;fill:#ffffff;fill-opacity:1;stroke:none;filter:url(#filter9094-7)" />
      <path
         transform="matrix(0.37004058,0,0,-0.26032107,33.555533,367.45689)"
         inkscape:connector-curvature="0"
         d="m 1205.164,809.10132 c 7.9163,66.53331 -33.4069,-36.65767 -37.5737,86.09479 -154.5975,10.18794 274.8931,-225.12675 36.3857,-96.40781 31.9264,46.74207 64.5534,183.83579 24.1667,173.9073 C 1123.301,852.80159 970.8352,788.29503 1030.2639,765.30858 c 85.4667,69.79342 -61.47114,239.25092 -106.82546,73.74439 -14.6142,-24.49712 36.93592,-19.69012 31.11453,-4.30044 -99.80467,25.97942 -79.15071,-49.19821 -153.45213,7.94871 -45.5416,5.94521 19.07351,-43.25672 57.08152,-104.12966 17.20689,-114.27265 5.44222,-10.14377 4.05048,-51.56933 -84.31834,-162.3951 37.57809,184.66379 122.35417,87.87251 -172.88435,65.82543 -158.78794,-216.69262 -58.51926,-127.63463 54.21596,13.47718 194.11965,67.80517 169.08275,81.29364 203.2739,-54.15139 342.2616,-175.17012 193.8427,-98.69842 60.8059,-65.30478 22.2807,115.60558 32.6037,136.91207 20.1871,84.34465 -93.8384,-51.64931 -51.7342,42.37025 142.3991,-36.57394 -75.6613,-146.34066 20.05,-38.14524"
         sodipodi:nodetypes="csssccsssssssssc"
         id="path7733-6"
         style="opacity:0.21363633;fill:#ffffff;fill-opacity:1;stroke:none;filter:url(#filter9090-2)" />
      <path
         transform="matrix(0.37004058,0,0,-0.26032107,33.555533,367.45689)"
         inkscape:connector-curvature="0"
         d="m 1278.8836,786.7064 c 21.8105,73.32873 -35.7181,-22.13514 -112.0778,102.43864 -21.4986,57.43778 268.8882,-172.46964 115.5324,-67.8012 -118.1422,106.44153 35.3491,200.65236 -29.8669,148.8695 -59.6556,-80.74537 -235.5565,-232.8402 -184.4891,-225.03561 115.762,41.8856 -15.994,242.03615 -68.76221,92.92566 -68.14672,-117.06165 -22.27029,-34.72523 -77.45205,-8.13328 -98.02706,-11.53885 -69.70359,-67.11696 -126.37604,-41.02606 -56.26045,31.0978 80.80181,-17.01576 89.06184,-87.46653 19.17612,-76.21672 56.02416,29.57307 17.57731,-53.67154 -45.81361,-83.81941 224.25415,90.40953 134.55615,78.42075 -82.68617,-34.06375 -177.63318,-181.3815 -37.116,-86.93238 85.5489,80.86409 -137.20903,243.34165 96.0409,151.71037 73.5274,-31.97345 270.9383,-243.25774 182.1169,-204.04216 -84.5987,-49.47558 108.0395,91.68976 74.4798,111.35729 73.8649,50.57166 -113.0193,174.2563 -65.5074,121.45821 87.6089,26.86301 -52.0826,-165.30892 42.2482,-69.62617"
         sodipodi:nodetypes="czzzzzzzzzzzzzzzz"
         id="path7799-9"
         style="opacity:0.21363633;fill:#ffffff;fill-opacity:1;stroke:none;filter:url(#filter9086-4)" />
      <path
         transform="matrix(0.37004058,0,0,-0.26032107,33.555533,367.45689)"
         inkscape:connector-curvature="0"
         d="m 1274.7324,819.97542 c 3.229,-31.43738 49.2389,209.46918 -49.9814,193.26968 -40.5558,41.2222 203.5641,-273.71374 -7.1795,-183.01586 -9.2399,2.50628 -139.998,116.78547 -59.0206,163.668 -19.3609,-61.0386 -80.4141,-110.54204 -170.87068,-79.27439 33.31188,56.17212 59.89238,125.13895 41.45008,69.93819 -48.30989,-49.26567 56.4121,-38.15919 7.111,-83.25459 -70.39694,4.62696 -102.67883,10.49634 -235.62329,-2.55347 -75.79784,55.50419 112.13984,-53.31584 98.45773,-141.40188 -40.44991,44.81405 16.71584,48.41246 8.6439,34.76508 -40.36859,-185.28773 -100.05657,178.02114 62.52164,93.76695 30.62922,8.79695 13.11347,-243.23362 76.75722,-161.96082 58.8865,-1.57619 -15.3169,123.04181 41.6275,158.56902 42.4968,-76.31053 220.7922,-199.82121 163.2115,-95.48509 66.3923,-36.8176 87.3408,-10.05942 78.7089,59.36846 -8.6376,140.08169 -125.4765,-183.54116 -58.7197,-32.68901 157.4178,-20.80266 -9.778,21.48392 36.7341,-12.82498"
         sodipodi:nodetypes="csssccsssssssssc"
         id="path9106-4"
         style="opacity:0.21363633;fill:#ffffff;fill-opacity:1;stroke:none;filter:url(#filter9098-6)" />
      <path
         transform="matrix(0.37004058,0,0,-0.26032107,33.555533,367.45689)"
         inkscape:connector-curvature="0"
         d="m 1289.3285,779.49895 c 90.8882,3.5911 84.0168,-39.61447 37.2389,34.24762 -119.1935,-24.93169 156.3532,-70.11612 -41.3742,-13.79637 -42.5431,38.88115 94.8644,223.1497 47.3193,229.2621 65.8975,-18.9275 -176.117,-235.19631 -209.0077,-234.21705 38.822,20.71719 -52.3868,300.95795 -120.7407,179.66974 -61.00828,-19.19715 44.4367,-153.3583 -15.58305,-153.56072 -173.79063,125.92042 2.53628,63.70579 -72.78983,47.44232 -72.54524,-0.68898 64.31642,0.66354 79.6636,-75.58347 -62.74354,-91.81398 -22.89289,-113.29896 -64.44187,-77.36581 51.54012,-213.74633 96.83385,213.31935 134.22895,104.98682 -10.3639,79.36955 -115.46525,-244.22834 -74.73648,-232.03051 40.22908,19.08699 254.54168,168.96957 217.67108,188.99246 99.6899,-62.00213 202.624,-138.40526 73.5841,-134.5959 61.2418,-72.34917 115.8534,92.09318 131.9626,156.40658 4.5926,62.31477 -225.6484,-99.0904 -87.266,-18.01935 167.9858,-4.617 117.25,-46.4797 86.9556,-30.97361"
         sodipodi:nodetypes="csssccsssssssssc"
         id="path9108-0"
         style="opacity:0.21363633;fill:#ffffff;fill-opacity:1;stroke:none;filter:url(#filter9094-7)" />
      <path
         transform="matrix(0.37004058,0,0,-0.26032107,33.555533,367.45689)"
         inkscape:connector-curvature="0"
         d="m 1274.4741,884.95116 c 7.6818,66.0997 -126.3629,-33.35253 -101.2955,154.97984 -284.58692,20.4792 363.6259,-279.87314 96.5424,-167.40894 55.1569,85.77097 -6.0892,230.22364 -12.6897,181.45304 -104.4118,-116.86682 -292.95123,-153.9584 -255.9989,-188.64612 80.5104,71.05252 -47.4078,108.80346 -45.43163,-9.1025 -36.20327,-67.64912 72.88863,-44.62313 43.18639,0.39604 -88.24629,60.73766 -96.80375,-87.81772 -174.2378,14.39095 -43.4215,-14.13326 42.78132,-42.711 74.25793,-84.62204 13.92647,-121.62831 30.16854,-44.95216 -7.12698,-88.1002 -147.50544,-49.89265 53.84638,146.33015 156.29629,20.43724 -147.82439,50.17972 -179.66859,-114.60362 -120.86754,-19.6167 62.77708,25.2335 183.98704,93.75584 172.43384,104.37106 227.4972,-44.85679 462.407,-276.2257 242.8575,-239.11783 86.0498,-67.63722 -2.5023,253.21489 9.1692,235.44623 60.3259,166.14409 -83.1175,-18.46156 -45.9236,82.71665 123.5894,0.16029 -119.9378,-170.66598 0.072,-39.92386"
         sodipodi:nodetypes="csssccsssssssssc"
         id="path9110-9"
         style="opacity:0.21363633;fill:#ffffff;fill-opacity:1;stroke:none;filter:url(#filter9090-2)" />
      <path
         transform="matrix(0.41196129,0,0,-0.26032107,-3.0862022,367.45689)"
         inkscape:connector-curvature="0"
         d="m 1230.7532,956.28031 c -44.7052,-3.87059 112.7565,19.55839 6.5589,56.98089 -125.6774,10.5901 140.5486,-241.03488 6.554,-138.52489 -50.8172,108.72021 112.9893,227.13609 57.2655,156.77349 -143.0801,-142.201 -256.4849,-160.15689 -187.5031,-142.60629 50.3585,25.49087 -86.4829,129.41279 -125.7017,104.4158 -87.26505,-73.26402 47.2234,-119.27851 3.15543,-51.34779 -88.34509,-45.14696 -100.46665,-53.90525 -117.00988,-51.72544 -6.17983,7.22932 20.30875,62.83497 23.30881,-68.59895 6.92393,-45.07668 93.96425,-18.45676 10.78799,-129.28154 59.95433,-53.91954 209.06605,269.34217 95.47725,188.81671 -106.57625,3.1896 -14.58591,-253.86114 26.0794,-149.16441 173.5572,73.69246 -44.96981,164.7295 144.9254,81.93349 16.2127,50.81031 184.3286,-202.68999 149.4594,-122.62843 -5.2527,-98.23305 12.2993,119.30406 42.7319,145.48038 -20.0184,67.43974 -221.7865,-11.06301 -53.3841,24.56086 96.3807,-28.34779 -80.1601,-125.28278 22.2862,-3.99837"
         sodipodi:nodetypes="czzzzzzzzzzzzzzzz"
         id="path9112-3"
         style="opacity:0.21363633;fill:#ffffff;fill-opacity:1;stroke:none;filter:url(#filter9086-4)" />
    </g>
    <g
       transform="translate(57.637974,105.94242)"
       id="g8940"
       style="opacity:0.40460528">
      <path
         transform="matrix(-0.44949519,0,0,0.26032107,990.54569,-95.078124)"
         inkscape:connector-curvature="0"
         d="m 636.45637,363.58679 c 7.31431,49.80476 -13.38011,100.49198 -57.64176,87.7563 37.63087,-41.03503 184.74187,-19.56439 66.08053,6.47822 -12.56195,33.70548 -89.30523,88.86537 -84.24577,78.30047 C 544.99553,503.90577 359.01743,313.2081 377.73805,389.93259 c 92.83824,54.36274 29.11396,117.29665 2.78327,51.35784 -22.13282,-50.37278 27.61659,88.37538 -23.82662,38.12958 -113.27846,-18.54298 34.66656,-28.03858 -111.21099,-32.92841 -91.36329,24.98542 51.74879,18.26583 64.18218,-91.48909 -30.2227,-85.53436 -56.95297,15.00711 -56.76613,8.79167 62.31103,-207.01931 26.6998,283.85977 94.96619,58.68316 32.97019,38.75147 -150.478,-315.29949 -29.29151,-206.78983 28.08221,-2.07907 194.87993,79.34582 142.60081,139.11551 116.91366,-67.05359 201.66224,-106.17601 146.16875,-49.43942 53.35087,5.49803 120.27771,25.5715 128.67181,67.88826 7.26285,39.97659 -177.07653,-95.62492 -99.60526,-30.64977 120.52409,-69.19735 88.48469,-14.90799 87.29683,-19.08059"
         sodipodi:nodetypes="csssccsssssssssc"
         id="path3169-4"
         style="opacity:0.21363633;fill:#ffffff;fill-opacity:1;stroke:none;filter:url(#filter9098-0)" />
      <path
         transform="matrix(-0.44949519,0,0,0.26032107,990.54569,-95.078124)"
         inkscape:connector-curvature="0"
         d="m 689.19725,299.34193 c 23.32951,63.30983 5.4337,45.50569 -39.88153,119.98236 C 556.141,386.6412 879.03359,325.71454 687.03839,382.06654 648.27447,424.589 741.48993,536.97561 704.49285,524.03502 623.88614,463.01685 511.3509,332.35188 474.86811,338.48204 c 49.29341,33.21309 2.84458,246.74524 -41.64137,111.16275 -18.87939,-32.71968 -17.93572,-49.52719 -71.98239,-95.01716 -120.27782,58.98033 -26.83154,60.11616 -99.48691,59.42435 -65.38828,15.35098 32.50497,-50.77849 54.72776,-129.75454 -55.84915,-74.80172 -14.57944,7.53709 -38.36219,38.14154 -4.45564,-242.42801 99.47536,153.44771 173.76975,37.24827 -10.36701,79.26455 -114.39077,-223.2871 -37.48072,-189.17489 40.92516,18.74041 203.23381,138.89255 167.23021,159.50632 100.99886,-60.31809 226.36311,-157.72753 136.82852,-93.28695 69.40215,-66.92073 58.73993,64.55977 67.64508,88.15658 4.15038,80.68462 -119.1411,-83.40627 -70.04043,-5.83406 115.86653,-56.5365 95.05153,-21.17171 65.1035,-14.03658"
         sodipodi:nodetypes="csssccsssssssssc"
         id="path7701-9"
         style="opacity:0.21363633;fill:#ffffff;fill-opacity:1;stroke:none;filter:url(#filter9094-8)" />
      <path
         transform="matrix(-0.44949519,0,0,0.26032107,990.54569,-95.078124)"
         inkscape:connector-curvature="0"
         d="m 614.30083,383.18405 c 7.91628,66.53331 -33.40689,-36.65767 -37.57368,86.09479 -154.59756,10.18794 274.89305,-225.12675 36.38568,-96.40781 31.92635,46.74207 64.55338,183.83579 24.16673,173.9073 C 532.43782,426.88432 379.97203,362.37776 439.40068,339.39131 c 85.46671,69.79342 -61.47109,239.25094 -106.82541,73.74439 -14.6142,-24.49712 36.93592,-19.69012 31.11453,-4.30044 -99.80467,25.97942 -79.15071,-49.19821 -153.45213,7.94871 -45.5416,5.94521 19.07351,-43.25672 57.08152,-104.12967 17.20689,-114.27264 5.44222,-10.14376 4.05048,-51.56932 -84.31834,-162.3951 37.57809,184.66379 122.35417,87.87251 -172.88435,65.82543 -158.78794,-216.69262 -58.51926,-127.63463 54.21596,13.47718 194.11967,67.80517 169.08273,81.29364 203.27393,-54.15139 342.26162,-175.17012 193.84267,-98.69842 60.80594,-65.30478 22.28073,115.60558 32.60373,136.91207 20.18707,84.34465 -93.83839,-51.64931 -51.73421,42.37025 142.39916,-36.57394 -75.66125,-146.34066 20.05005,-38.14524"
         sodipodi:nodetypes="csssccsssssssssc"
         id="path7733-8"
         style="opacity:0.21363633;fill:#ffffff;fill-opacity:1;stroke:none;filter:url(#filter9090-3)" />
      <path
         transform="matrix(-0.44949519,0,0,0.26032107,990.54569,-95.078124)"
         inkscape:connector-curvature="0"
         d="M 688.02039,360.78913 C 709.83089,434.11786 652.30233,338.65399 575.9426,463.22777 554.44406,520.66555 844.83078,290.75813 691.47505,395.42657 573.33283,501.86809 726.82412,596.0789 661.60816,544.29607 601.9525,463.5507 426.05167,311.45587 477.11904,319.26046 c 115.76198,41.8856 -15.994,242.03615 -68.76222,92.92566 -68.14672,-117.06165 -22.27029,-34.72523 -77.45205,-8.13328 -98.02706,-11.53885 -69.70359,-67.11696 -126.37604,-41.02606 -56.26045,31.0978 80.80181,-17.01576 89.06184,-87.46653 19.17612,-76.21672 56.02416,29.57307 17.57731,-53.67154 C 265.35427,138.0693 535.422,312.29824 445.72407,300.30946 363.03786,266.24571 268.09085,118.92796 408.60803,213.37708 494.15697,294.24117 271.399,456.71873 504.6489,365.08745 578.17629,333.114 775.58725,121.82971 686.7658,161.04528 c -84.59869,-49.47557 108.03953,91.68977 74.4798,111.3573 73.86488,50.57166 -113.01928,174.2563 -65.50737,121.45821 87.60893,26.86301 -52.08265,-165.30892 42.24822,-69.62617"
         sodipodi:nodetypes="czzzzzzzzzzzzzzzz"
         id="path7799-4"
         style="opacity:0.21363633;fill:#ffffff;fill-opacity:1;stroke:none;filter:url(#filter9086-1)" />
      <path
         transform="matrix(-0.44949519,0,0,0.26032107,990.54569,-95.078124)"
         inkscape:connector-curvature="0"
         d="m 683.86925,394.05815 c 3.22902,-31.43738 49.23887,209.46921 -49.98141,193.26964 -40.55581,41.22222 203.56409,-273.7137 -7.17953,-183.01582 -9.2399,2.50628 -139.99798,116.78547 -59.02054,163.668 -19.36094,-61.0386 -80.41419,-110.54204 -170.87072,-79.27439 33.3119,56.17211 59.89234,125.13898 41.45007,69.93818 -48.30988,-49.26566 56.41212,-38.15918 7.11103,-83.25458 -70.39696,4.62696 -102.67885,10.49634 -235.62331,-2.55347 -75.79784,55.50419 112.13984,-53.31584 98.45773,-141.40188 -40.44991,44.81405 16.71584,48.41246 8.6439,34.76508 -40.36859,-185.28774 -100.05657,178.02113 62.52164,93.76695 30.62924,8.79695 13.11347,-243.23362 76.75717,-161.96083 58.88654,-1.57619 -15.31682,123.04181 41.62754,158.56902 42.49682,-76.31053 220.79221,-199.82121 163.2115,-95.48509 66.39228,-36.8176 87.34078,-10.05942 78.70891,59.36846 -8.63765,140.08169 -125.47649,-183.54116 -58.71969,-32.68901 157.41776,-20.80266 -9.77806,21.48392 36.73404,-12.82498"
         sodipodi:nodetypes="csssccsssssssssc"
         id="path9106-2"
         style="opacity:0.21363633;fill:#ffffff;fill-opacity:1;stroke:none;filter:url(#filter9098-0)" />
      <path
         transform="matrix(-0.44949519,0,0,0.26032107,990.54569,-95.078124)"
         inkscape:connector-curvature="0"
         d="m 698.46529,353.58168 c 90.88821,3.5911 84.01684,-39.61447 37.23895,34.24762 -119.19356,-24.93169 156.35319,-70.11612 -41.37421,-13.79637 -42.54307,38.88115 94.86441,223.14968 47.31925,229.26207 65.89753,-18.92751 -176.117,-235.19628 -209.00769,-234.21702 38.82201,20.71719 -52.38676,300.95794 -120.7407,179.66974 -61.00824,-19.19715 44.43678,-153.3583 -15.58301,-153.56072 -173.79063,125.92042 2.53628,63.70579 -72.78983,47.44232 -72.54524,-0.68898 64.31642,0.66354 79.6636,-75.58347 C 340.44811,275.23187 380.29876,253.74689 338.74978,289.68004 390.2899,75.93371 435.5836,502.99939 472.97876,394.66686 462.61482,474.03641 357.51348,150.43851 398.24225,162.63634 c 40.22907,19.08699 254.54171,168.96958 217.67108,188.99247 99.68991,-62.00213 202.62401,-138.40526 73.58409,-134.5959 61.24184,-72.34918 115.85342,92.09318 131.96259,156.40658 4.59265,62.31477 -225.64843,-99.0904 -87.26596,-18.01935 167.98582,-4.617 117.25001,-46.4797 86.95553,-30.97361"
         sodipodi:nodetypes="csssccsssssssssc"
         id="path9108-8"
         style="opacity:0.21363633;fill:#ffffff;fill-opacity:1;stroke:none;filter:url(#filter9094-8)" />
      <path
         transform="matrix(-0.44949519,0,0,0.26032107,990.54569,-95.078124)"
         inkscape:connector-curvature="0"
         d="m 683.61095,459.03389 c 7.68178,66.0997 -126.3629,-33.35253 -101.29555,154.97981 -284.58689,20.47928 363.62597,-279.87311 96.54239,-167.40891 55.15698,85.77097 -6.08913,230.22368 -12.68963,181.45309 C 561.75633,511.19101 373.2169,474.09943 410.16926,439.41171 c 80.51033,71.05252 -47.40783,108.80346 -45.43166,-9.1025 -36.20327,-67.64912 72.88864,-44.62313 43.18639,0.39604 -88.24629,60.73766 -96.80375,-87.81772 -174.2378,14.39095 -43.4215,-14.13326 42.78132,-42.711 74.25793,-84.62204 13.92647,-121.62831 30.16854,-44.95216 -7.12698,-88.1002 -147.50544,-49.89265 53.84638,146.33015 156.29624,20.43724 -147.82434,50.17972 -179.66854,-114.60363 -120.86749,-19.6167 62.77708,25.2335 183.98699,93.75584 172.43384,104.37106 227.49724,-44.85679 462.40699,-276.2257 242.85749,-239.11783 86.04977,-67.63722 -2.50228,253.21489 9.16921,235.44623 60.32589,166.14409 -83.11752,-18.46156 -45.92361,82.71665 123.5894,0.16029 -119.93775,-170.66598 0.0723,-39.92386"
         sodipodi:nodetypes="csssccsssssssssc"
         id="path9110-5"
         style="opacity:0.21363633;fill:#ffffff;fill-opacity:1;stroke:none;filter:url(#filter9090-3)" />
      <path
         transform="matrix(-0.55450702,0,0,0.26032107,1020.286,-95.078124)"
         inkscape:connector-curvature="0"
         d="m 639.89002,530.36304 c -44.70522,-3.87059 112.75646,19.55839 6.55888,56.98085 -125.67738,10.5901 140.54863,-241.03484 6.55401,-138.52485 -50.81716,108.72021 112.9893,227.13605 57.26551,156.77348 C 567.18829,463.39153 453.78356,445.43564 522.76528,462.98624 573.1238,488.47711 436.28247,592.399 397.06363,567.40204 309.79858,494.13802 444.28707,448.12353 400.21906,516.05425 311.87397,470.90729 299.75241,462.149 283.20918,464.32881 c -6.17983,7.22932 20.30875,62.83497 23.30881,-68.59895 6.92393,-45.07668 93.96425,-18.45676 10.78799,-129.28154 59.95433,-53.91954 209.06609,269.34217 95.47728,188.81671 -106.57628,3.1896 -14.58594,-253.86114 26.07939,-149.16441 173.55717,73.69246 -44.96983,164.7295 144.9254,81.93349 16.21265,50.81031 184.32858,-202.69 149.45938,-122.62843 -5.25271,-98.23306 12.29929,119.30406 42.73193,145.48038 -20.01845,67.43974 -221.78656,-11.06301 -53.38413,24.56086 96.38074,-28.34779 -80.16008,-125.28278 22.28624,-3.99837"
         sodipodi:nodetypes="czzzzzzzzzzzzzzzz"
         id="path9112-5"
         style="opacity:0.21363633;fill:#ffffff;fill-opacity:1;stroke:none;filter:url(#filter9086-1)" />
    </g>
  </g>
</svg>
